<?xml version="1.0" encoding="utf-8"?>
<!-- Generator: Adobe Illustrator 19.0.0, SVG Export Plug-In . SVG Version: 6.00 Build 0)  -->
<svg version="1.1" xmlns="http://www.w3.org/2000/svg" xmlns:xlink="http://www.w3.org/1999/xlink" x="0px" y="0px"
	 viewBox="39 -279.7 551 450.4" style="enable-background:new 39 -279.7 551 450.4;" xml:space="preserve">
<style type="text/css">
	.st0{fill:#EF5B34;}
	.st1{fill:#D1C2BF;}
	.st2{fill:#7C372C;}
</style>
<g id="bbb">
	<path id="ggg" class="st0" d="M359,40.9c-3.9-3.9-10.2-3.9-14.1,0s-3.9,10.1,0,14l114,112.9c3.9,3.9,10.2,3.9,14.1,0L587.1,54.9
		c3.9-3.9,3.9-10.1,0-14s-10.2-3.9-14.1,0l-107,103L359,40.9z"/>
	<path id="h" class="st1" d="M572.8,8.1c3.9,3.9,10.2,3.9,14.1,0s3.9-10.1,0-14L473.3-119.1c-3.9-3.9-10.2-3.9-14.1,0L344.7-6.6
		c-3.9,3.9-3.9,10.1,0,14c3.9,3.9,10.2,3.9,14.1,0l107,101.8L572.8,8.1z"/>
	<g>
		<path id="aaaaaaaaa" class="st2" d="M281.8,8.1c3.9,3.9,10.2,3.9,14.1,0s3.9-10.1,0-14L182.3-119.1c-3.9-3.9-10.2-3.9-14.1,0
			L53.7-6.6c-3.9,3.9-3.9,10.1,0,14s10.2,3.9,14.1,0L175.1-95.2L281.8,8.1z"/>
		<path id="aaa" class="st0" d="M56,40.9c-3.9-3.9-10.2-3.9-14.1,0s-3.9,10.1,0,14l114,112.9c3.9,3.9,10.2,3.9,14.1,0L284.1,54.9
			c3.9-3.9,3.9-10.1,0-14s-10.2-3.9-14.1,0l-107,103L56,40.9z"/>
	</g>
</g>
<g id="ccc">
	<path id="ewqewqeq" class="st0" d="M56,40.9c-3.9-3.9-10.2-3.9-14.1,0s-3.9,10.1,0,14l114,112.9c3.9,3.9,10.2,3.9,14.1,0
		L284.1,54.9c3.9-3.9,3.9-10.1,0-14s-10.2-3.9-14.1,0l-107,103L56,40.9z"/>
</g>
<g id="ewqewqeqw">
	<path id="rect" class="st1" d="M361-141.7H247c-6.6,0-12-5.4-12-12v-114c0-6.6,5.4-12,12-12h114c6.6,0,12,5.4,12,12v114
		C373-147.1,367.6-141.7,361-141.7z"/>
</g>
</svg>
