<?xml version="1.0" encoding="utf-8"?>
<!-- Generator: Adobe Illustrator 19.0.0, SVG Export Plug-In . SVG Version: 6.00 Build 0)  -->
<svg version="1.1" id="Layer_1" xmlns="http://www.w3.org/2000/svg" xmlns:xlink="http://www.w3.org/1999/xlink" x="0px" y="0px"
	 viewBox="0 0 176.8 162.9" style="enable-background:new 0 0 176.8 162.9;" xml:space="preserve">
<style type="text/css">
	.st0{fill:#58595B;}
</style>
<g id="JbILv2_1_">
	<g>
		<path class="st0" d="M108.3,99.7c-13.4,0-26.7,0-40.1,0c0,0.5,0,1,0,1.5c0,19.2,0,38.3,0,57.5c0,2.4-1.7,4.2-4.1,4.1
			c-12.3-0.1-24.6,0-36.8,0c-2.6,0-4-1.4-4-4c0-11.4,0-22.8,0-34.2c0-11.1,0-22.2,0-33.3c0-2.3,1.4-3.8,3.5-3.9
			c2.2,0,3.7,1.5,3.7,3.8c0,6.1,0,12.2,0,18.4c0,14.8,0,29.5,0,44.3c0,0.5,0,1,0,1.6c10.2,0,20.3,0,30.6,0c0-0.5,0-1,0-1.5
			c0-19.1,0-38.2,0-57.2c0-1.5,0.3-3,1.7-3.8c0.6-0.3,1.2-0.6,1.9-0.6c15.4,0,30.8,0,46.2,0c3.4,0,4.6,1.2,4.6,4.6
			c0,19,0,37.9,0,56.9c0,0.5,0,1,0,1.6c10.2,0,20.3,0,30.6,0c0-1.4,0-2.8,0-4.2c0-19.8,0-39.6,0-59.4c0-1.2,0.1-2.3,1-3.2
			c1.1-1.2,2.2-1.6,3.6-1.2c1.4,0.5,2.3,1.6,2.5,3.1c0,0.4,0,0.7,0,1.1c0,20.6,0,41.3,0,61.9c0,1.8,0,3.6,0,5.4
			c0,2.2-1.4,3.7-3.7,3.7c-12.5,0-24.9,0-37.4,0c-2.5,0-3.8-1.4-3.8-3.9c0-14.7,0-29.4,0-44.2c0-4.6,0-9.1,0-13.7
			C108.3,100.7,108.3,100.3,108.3,99.7z"/>
		<path class="st0" d="M145.9,21.3c-3.9,0-7.6,0-11.6,0c0,0.5,0,1,0,1.5c0,4.7,0,9.4,0,14.2c0,3.2-2.5,4.7-5.4,3.4
			c-0.9-0.4-1.9-0.8-2.6-1.4c-4.2-3.4-8.3-6.8-12.4-10.2c-8.2-6.7-16.3-13.4-24.5-20.1c-0.2-0.1-0.4-0.3-0.6-0.4
			c-7,6.1-13.9,12.2-20.9,18.2C60,33.4,52.1,40.3,44.2,47.2C36.3,54.1,28.3,61,20.4,68c-4.8,4.2-9.5,8.3-14.3,12.4
			c-1.8,1.6-3.9,1.4-5.3-0.2c-1.3-1.6-1-3.8,0.7-5.3C15,63.2,28.5,51.4,41.9,39.7C53.6,29.5,65.2,19.4,76.9,9.2
			c3.1-2.7,6.2-5.4,9.3-8.1c1.6-1.4,3.4-1.4,5-0.1c9,7.4,18,14.8,27.1,22.2c2.5,2,5,3.9,7.5,5.9c0.4,0.3,0.6,0.8,0.9,1.2
			c0.2-0.1,0.3-0.1,0.5-0.2c0-1.2,0-2.3,0-3.5c0-2.8,0-5.6,0-8.4c0-2.7,1.4-4,4.1-4.1c6,0,11.9,0,17.9,0c2.7,0,4,1.4,4,4.1
			c0,10.2,0.1,20.4-0.1,30.6c0,1.8,0.6,2.9,1.7,4.1c7,7.4,13.9,14.8,20.8,22.3c1.6,1.7,1.6,3.9,0.1,5.3c-1.5,1.4-3.6,1.3-5.2-0.4
			c-3.2-3.4-6.3-6.9-9.5-10.3c-3.7-3.9-7.4-7.8-11-11.7c-1.6-1.7-3.2-3.4-4.8-5.2c-1.8-2-1.7-4.1,0.4-5.8c0.3-0.2,0.5-0.6,0.5-1
			c0-8.2,0-16.3,0-24.5C146,21.7,145.9,21.5,145.9,21.3z"/>
	</g>
</g>
</svg>
