<?xml version="1.0" encoding="utf-8"?>
<!-- Generator: Adobe Illustrator 19.0.0, SVG Export Plug-In . SVG Version: 6.00 Build 0)  -->
<svg version="1.1" id="Layer_1" xmlns="http://www.w3.org/2000/svg" xmlns:xlink="http://www.w3.org/1999/xlink" x="0px" y="0px"
	 viewBox="0 0 127.7 115" style="enable-background:new 0 0 127.7 115;" xml:space="preserve">
<path d="M117.1,0.5c-5.9,0-10.6,4.8-10.6,10.6c0,3.8,2.1,7.2,5.1,9L91.3,40.4L70.4,19.5c2.5-1.9,4.1-4.9,4.1-8.4
	c0-5.9-4.8-10.6-10.6-10.6S53.2,5.3,53.2,11.1c0,3.4,1.6,6.4,4.1,8.4L36.5,40.4L15.8,19.9c3.2-1.8,5.4-5.2,5.4-9.2
	C21.3,4.8,16.5,0,10.6,0S0,4.8,0,10.6c0,4.1,2.4,7.7,5.8,9.4v79.1c0,1.1,0.5,2.1,1.2,2.9c6.2,10.1,37.5,13,56.9,13s50.7-2.9,56.9-13
	c0.7-0.7,1.2-1.8,1.2-2.9V20.6c3.4-1.8,5.8-5.3,5.8-9.4C127.8,5.3,123,0.5,117.1,0.5 M117.1,8.6c1.4,0,2.5,1.1,2.5,2.5
	c0,1.4-1.1,2.5-2.5,2.5c-1.4,0-2.5-1.1-2.5-2.5C114.6,9.7,115.7,8.6,117.1,8.6 M63.9,8.6c1.4,0,2.5,1.1,2.5,2.5
	c0,1.4-1.1,2.5-2.5,2.5s-2.5-1.1-2.5-2.5C61.4,9.7,62.5,8.6,63.9,8.6 M113.7,98.3c-1.2,1.4-5.3,3.3-12.1,4.9
	c-8.6,2-21.3,3.7-37.6,3.7c-16.3,0-29.1-1.7-37.7-3.7c-6.8-1.6-10.9-3.4-12.1-4.9l-0.2-9.2V29.4L33.6,49c1.6,1.6,4.1,1.6,5.7,0
	l24.5-24.6L88.4,49c1.6,1.6,4.1,1.6,5.7,0l19.7-19.6v59.8L113.7,98.3z M10.6,8.1c1.4,0,2.5,1.1,2.5,2.5c0,1.4-1.1,2.5-2.5,2.5
	c-1.4,0-2.5-1.1-2.5-2.5C8.1,9.2,9.2,8.1,10.6,8.1"/>
</svg>
